<?xml version="1.0" encoding="utf-8"?>
<!-- Generator: Adobe Illustrator 28.0.0, SVG Export Plug-In . SVG Version: 6.00 Build 0)  -->
<svg version="1.1" id="Layer_1" xmlns="http://www.w3.org/2000/svg" xmlns:xlink="http://www.w3.org/1999/xlink" x="0px" y="0px"
	 viewBox="0 0 180 180" style="enable-background:new 0 0 180 180;" xml:space="preserve">
<style type="text/css">
	.st0{fill:#FFFFFF;}
	.st1{fill:#CB1619;}
	.st2{fill:#AA6370;}
</style>
<g>
	<path class="st0" d="M79.6,17.9c-2.7,0.4-5.3,0.9-8,1.5c-4.6,1.2-9.1,2.7-13.4,4.8c-6.7,3.2-12.9,7.3-18.4,12.3
		C35,41,30.8,46,27.3,51.6c-3.4,5.3-6,11-7.8,17c-1.4,4.4-2.3,9-2.9,13.6c-0.5,4.5-0.6,9.1-0.3,13.6c0.3,4.5,1.1,8.9,2.2,13.2
		c2,7.5,5.1,14.4,9.3,20.9c6.6,10.1,15.2,18.1,25.8,23.9c6.1,3.4,12.6,5.8,19.5,7.3c6.7,1.4,13.4,1.9,20.2,1.4
		c8.1-0.6,15.8-2.4,23.2-5.6c8.1-3.5,15.2-8.3,21.5-14.3c5.2-5,9.4-10.6,12.9-16.9c2.8-5.1,4.9-10.5,6.4-16.2
		c1.7-6.5,2.4-13.1,2.3-19.8c-0.1-5.1-0.8-10.1-2-15c-1.2-4.9-2.9-9.5-5.1-14c-3.5-7.2-8.2-13.7-13.9-19.3c-4-3.9-8.4-7.3-13.2-10.2
		c-5.9-3.5-12.1-6.1-18.7-7.7c-5.7-1.4-11.4-2.1-17.2-2.1c-0.1,0-0.2,0-0.4,0c0-2.8,0-5.6,0-8.4c0.5,0,1,0,1.5,0
		c9,0.3,17.8,2,26.2,5.3c7,2.7,13.4,6.4,19.4,11c7.3,5.7,13.4,12.4,18.2,20.2c4.6,7.3,7.8,15.2,9.8,23.7c1.5,6.8,2.2,13.6,1.9,20.6
		c-0.4,8.9-2.3,17.6-5.7,25.8c-3.7,9-8.9,16.9-15.6,23.9c-4.5,4.7-9.5,8.7-15,12.1c-7.1,4.4-14.6,7.5-22.7,9.4
		c-7.9,1.8-15.8,2.4-23.9,1.7c-12.9-1.2-24.7-5.3-35.5-12.5c-3.9-2.6-7.5-5.5-10.8-8.7c-6.5-6.4-11.7-13.6-15.6-21.9
		c-2.4-5-4.1-10.2-5.3-15.7c-1.3-6-1.9-12-1.8-18.1C14.4,78.7,17,68.1,22,58.2c4.4-8.7,10.2-16.2,17.5-22.6
		c6-5.2,12.6-9.4,19.9-12.5c6-2.6,12.2-4.3,18.7-5.2c0.4-0.1,0.9-0.1,1.3-0.2c0,0,0.1,0,0.1,0c0.1,0,0.2,0,0.2,0
		C79.9,17.9,79.6,17.8,79.6,17.9z"/>
	<path class="st0" d="M94.4,90.4c0.4,1.3,0.8,2.6,1.3,3.9c0.9,2.2,2.2,4.2,3.7,6.1c0.3,0.3,0.3,0.5,0,0.9c-3.5,3.2-7.6,5.4-12.3,6
		c-10.9,1.4-19.7-3.7-24.2-12.5c-2.4-4.6-3.1-9.6-2.1-14.7c1.4-7.4,5.6-12.8,12.1-16.4c3.5-1.9,7.2-2.6,11.2-2.5
		c4.4,0.1,8.5,1.3,12.1,3.7c5.6,3.8,9,8.9,10.2,15.6c0.3,1.4,0.2,2.8,0.3,4.3c0.3,4.5,2.3,7.9,6.2,10.3c1.6,1,3.4,1.4,5.2,1.7
		c1.7,0.3,3.2,0.9,4.2,2.4c1.2,1.8,1.3,3.7,0.3,5.6c-1,1.9-2.7,2.9-4.8,2.7c-2.4-0.2-4.8-0.5-7.1-1.4c-3.8-1.4-6.9-3.8-9.5-6.9
		c-2.1-2.5-3.6-5.4-4.5-8.6c-0.6-2.2-0.8-4.5-0.9-6.9c-0.2-6.5-5.5-10.8-10.2-11.5c-5.9-0.9-11.5,2.3-13.6,7.9
		c-2.8,7.5,1.7,13.8,7,15.8c5.6,2.1,11.7,0.1,15-5C94.2,90.7,94.2,90.5,94.4,90.4z"/>
	<path class="st0" d="M106.8,74.6c-0.4-0.8-0.7-1.5-1.1-2.2c-2.2-4.1-5.4-7.4-9.5-9.8c-0.5-0.3-0.6-0.7-0.6-1.2c0-3.2,0-6.4,0-9.6
		c0-1.4,0-2.8,0-4.1c0-1,0.1-1,1-0.9c2.4,0.2,4.6,1.1,6.4,2.6c2.5,2.1,3.6,4.8,3.9,8c0.1,0.9,0,1.8,0,2.7c0,0.6,0.1,0.7,0.7,0.7
		c4.9,0,9.8,0,14.6,0c2.5,0,4.6,1.6,5.3,4c0.6,2.2-0.4,4.8-2.3,6.1c-1,0.6-2.1,0.9-3.2,0.9c-4.7,0-9.5,0-14.2-0.1
		c-0.7,0-0.8,0.1-0.8,0.8C107,73.2,107,73.9,106.8,74.6z"/>
	<path class="st0" d="M66.8,133c-1,0.6-2.1,1-3.2,1.1c-4.6,0.4-8.6-3.3-8.5-8c0.1-5.7,6.1-9.3,11.2-6.8c0.3,0.2,0.5,0.2,0.8-0.1
		c0.6-0.7,1.4-0.9,2.2-0.6c0.9,0.3,1.3,1,1.3,2c0,3.8,0,7.6,0,11.4c0,1-0.5,1.7-1.4,2c-0.9,0.3-1.6,0-2.2-0.9
		C66.8,133.1,66.8,133,66.8,133z M59.1,126.3c0,2,1.6,3.7,3.7,3.7c2.1,0,3.8-1.6,3.8-3.7c0-2.1-1.6-3.7-3.7-3.7
		C60.8,122.6,59.1,124.3,59.1,126.3z"/>
	<path class="st0" d="M95.7,119.5c0.1-0.1,0.2-0.3,0.3-0.4c0.6-0.6,1.4-0.8,2.3-0.5c0.8,0.3,1.2,1,1.2,1.9c0,1.4,0,2.7,0,4.1
		c0,2.4,0,4.7,0,7.1c0,0.3,0,0.6-0.1,0.9c-0.5,1.4-1.9,1.9-3.1,1c-0.6-0.4-1-0.5-1.6-0.2c-3,1.2-5.7,0.8-8.1-1.3
		c-2.5-2.2-3.3-5-2.3-8.2c0.9-3,3.1-4.8,6.2-5.3c1.6-0.3,3.2,0,4.7,0.7C95.4,119.4,95.5,119.4,95.7,119.5z M91.8,130
		c2.1,0,3.7-1.7,3.7-3.7c0-2-1.7-3.7-3.7-3.7c-2.1,0-3.8,1.7-3.7,3.8C88.1,128.4,89.7,130,91.8,130z"/>
	<path class="st0" d="M78,118.1c1.3,0,2.7,0.3,3.8,1.3c1.3,1.1,1,2.9-0.5,3.5c-0.6,0.3-1.3,0.3-1.9-0.2c-0.8-0.6-1.7-0.8-2.7-0.5
		c-0.3,0.1-0.6,0.3-0.7,0.7c0,0.4,0.2,0.6,0.5,0.7c0.9,0.5,1.9,0.7,2.9,0.9c0.9,0.2,1.8,0.6,2.5,1.2c1.4,1.2,1.7,2.7,1.4,4.4
		c-0.3,1.9-1.4,3.1-3.2,3.8c-2.1,0.8-4.3,0.7-6.4-0.1c-0.5-0.2-1-0.5-1.3-0.9c-0.8-0.8-0.9-2-0.3-2.8c0.7-0.9,1.8-1.1,2.8-0.4
		c0.5,0.3,1.1,0.7,1.7,0.8c0.6,0.1,1.2,0,1.8-0.2c0.4-0.1,0.6-0.4,0.6-0.8c0-0.4-0.2-0.6-0.6-0.8c-0.8-0.4-1.7-0.5-2.5-0.7
		c-1.1-0.3-2.2-0.6-3-1.4c-2-1.9-1.7-5.4,0.6-7.1C74.9,118.5,76.3,118.1,78,118.1z"/>
	<path class="st0" d="M129.3,128.8c0.4-1.1,0.9-2.1,1.3-3.2c0.8-2,1.6-4,2.4-5.9c0.4-0.9,1-1.4,1.8-1.3c1.3,0.1,2,1.3,1.5,2.5
		c-1.1,2.6-2.2,5.3-3.3,7.9c-0.5,1.2-1,2.4-1.5,3.6c-0.6,1.5-2.4,2-3.7,1.1c-0.4-0.3-0.6-0.7-0.8-1.1c-1.5-3.7-3.1-7.5-4.6-11.2
		c-0.3-0.8-0.4-1.6,0.2-2.2c0.8-0.9,2.3-0.6,2.8,0.5c0.4,0.9,0.8,1.8,1.1,2.7c0.9,2.1,1.7,4.3,2.6,6.4
		C129.1,128.7,129.1,128.8,129.3,128.8z"/>
	<path class="st0" d="M106.4,123.5c0,2.7,0,5.4,0,8c0,0.5-0.1,0.9-0.3,1.3c-0.5,0.9-1.3,1.3-2.3,1.2c-0.9-0.1-1.7-0.8-1.9-1.7
		c-0.1-0.3-0.1-0.6-0.1-0.9c0-5.3,0-10.6,0-15.9c0-1,0.4-1.9,1.4-2.3c1.5-0.7,3.2,0.4,3.2,2c0,2.4,0,4.8,0,7.2
		C106.4,122.8,106.4,123.1,106.4,123.5C106.4,123.5,106.4,123.5,106.4,123.5z"/>
	<path class="st0" d="M122.2,118.5c-0.9,1.1-0.7,2.2-0.2,3.3c-1.1,0-2.1,0-3.1,0c-0.1,0.4-0.1,0.8-0.1,1.2c0,3,0,5.9,0,8.9
		c0,1.1-0.6,1.8-1.5,1.9c-1.1,0.1-1.9-0.5-1.9-1.6c0-0.9,0-1.9,0-2.8c0-2.4,0-4.7,0-7.1c0-0.4-0.1-0.5-0.6-0.5c-0.8,0-1.7,0-2.6,0
		c-0.6,0-1.2-0.2-1.5-0.8c-0.3-0.6-0.3-1.3,0.1-1.9c0.3-0.5,0.9-0.7,1.5-0.7c2.7,0,5.4,0,8.1,0C121,118.5,121.5,118.5,122.2,118.5z"
		/>
	<path class="st0" d="M79.7,78.5c2.5,1.4,4.8,2.8,7.2,4.2c1.1,0.6,2.2,1.2,3.2,1.9c0.6,0.3,0.6,0.5,0,0.8c-3.4,2-6.8,3.9-10.2,5.9
		c-0.1,0.1-0.2,0.1-0.3,0.2C79.7,87.1,79.7,82.9,79.7,78.5z"/>
	<path class="st0" d="M79.6,17.9c0-0.1,0.3,0,0.1-0.2c0.6-0.2,1.2-0.2,1.7-0.2c1.4-0.2,2.8-0.2,4.3-0.2c0.1,0,0.1,0,0.2,0.1
		c-0.9,0.1-1.8,0.1-2.7,0.2C82.1,17.6,80.9,17.7,79.6,17.9z"/>
	<path class="st0" d="M79.5,17.7c0,0-0.1,0-0.1,0C79.5,17.7,79.5,17.7,79.5,17.7z"/>
</g>
</svg>
